<svg width="16" height="16" viewBox="0 0 16 16" fill="none" xmlns="http://www.w3.org/2000/svg">
<path fill-rule="evenodd" clip-rule="evenodd" d="M11.2327 10.312L15.7738 14.862C16.034 15.1227 16.034 15.544 15.7739 15.8047C15.6441 15.9347 15.4738 16 15.3035 16C15.1331 16 14.9628 15.9347 14.833 15.8047L10.2919 11.2547C9.20536 12.136 7.82472 12.6667 6.321 12.6667C2.8358 12.6667 0 9.82531 0 6.33331C0 2.84131 2.83577 0 6.32097 0C9.80616 0 12.642 2.84134 12.642 6.33334C12.642 7.84 12.1123 9.22334 11.2327 10.312ZM1.33073 6.3333C1.33073 9.09064 3.56901 11.3333 6.32098 11.3333C9.07292 11.3333 11.3112 9.09064 11.3112 6.3333C11.3112 3.57596 9.07295 1.3333 6.32098 1.3333C3.56901 1.3333 1.33073 3.57596 1.33073 6.3333Z" fill="white"/>
</svg>
