<svg width="24" height="24" viewBox="0 0 24 24" fill="none" xmlns="http://www.w3.org/2000/svg">
<path fill-rule="evenodd" clip-rule="evenodd" d="M14.5307 14.6675L18.788 18.9331C19.0319 19.1775 19.0319 19.5725 18.788 19.8169C18.6664 19.9387 18.5067 20 18.347 20C18.1873 20 18.0276 19.9387 17.906 19.8169L13.6487 15.5512C12.63 16.3775 11.3357 16.875 9.92594 16.875C6.65857 16.875 4 14.2112 4 10.9375C4 7.66373 6.65854 5 9.92591 5C13.1933 5 15.8518 7.66376 15.8518 10.9375C15.8518 12.35 15.3553 13.6469 14.5307 14.6675ZM5.24757 10.9375C5.24757 13.5225 7.34596 15.625 9.92593 15.625C12.5059 15.625 14.6043 13.5225 14.6043 10.9375C14.6043 8.35247 12.5059 6.24998 9.92593 6.24998C7.34596 6.24998 5.24757 8.35247 5.24757 10.9375Z" fill="#626162"/>
</svg>
